<?xml version="1.0" encoding="UTF-8" standalone="no"?>
<!-- Created with Inkscape (http://www.inkscape.org/) -->

<svg
   version="1.1"
   id="svg9"
   xml:space="preserve"
   width="793.70135"
   height="423.85333"
   viewBox="0 0 793.70135 423.85333"
   sodipodi:docname="NIA_LOGO.svg"
   inkscape:version="1.1.2 (b8e25be833, 2022-02-05)"
   xmlns:inkscape="http://www.inkscape.org/namespaces/inkscape"
   xmlns:sodipodi="http://sodipodi.sourceforge.net/DTD/sodipodi-0.dtd"
   xmlns="http://www.w3.org/2000/svg"
   xmlns:svg="http://www.w3.org/2000/svg"><defs
     id="defs13"><clipPath
       clipPathUnits="userSpaceOnUse"
       id="clipPath23"><path
         d="M 0,317.89 H 595.276 V 0 H 0 Z"
         id="path21" /></clipPath></defs><sodipodi:namedview
     id="namedview11"
     pagecolor="#ffffff"
     bordercolor="#666666"
     borderopacity="1.0"
     inkscape:pageshadow="2"
     inkscape:pageopacity="0.0"
     inkscape:pagecheckerboard="0"
     showgrid="false"
     inkscape:zoom="0.87084308"
     inkscape:cx="372.62741"
     inkscape:cy="260.66694"
     inkscape:window-width="1366"
     inkscape:window-height="705"
     inkscape:window-x="-8"
     inkscape:window-y="-8"
     inkscape:window-maximized="1"
     inkscape:current-layer="g15" /><g
     id="g15"
     inkscape:groupmode="layer"
     inkscape:label="NIA_LOGO"
     transform="matrix(1.3333333,0,0,-1.3333333,0,423.85333)"><g
       id="g17"><g
         id="g19"
         clip-path="url(#clipPath23)"><g
           id="g25"
           transform="translate(455.8242,177.6156)"><path
             d="m 0,0 -45.686,-75.514 h -31.821 c 0,0 55.586,92.735 56.682,94.833 2.439,4.457 -0.504,7.739 -0.504,7.739 H 20.289 L 81.416,-75.514 H 44.359 c 0,0 3.544,3.133 0.476,8.199 -1.357,2.287 -40.934,67.323 -40.934,67.323 0,0 -0.922,1.876 -1.945,1.876 C 0.994,1.884 0,0 0,0"
             style="fill:#005596;fill-opacity:1;fill-rule:nonzero;stroke:none"
             id="path27" /></g><g
           id="g29"
           transform="translate(236.2251,204.9877)"><path
             d="m 0,0 c 0,0 2.871,-3.596 0.789,-7.844 -0.733,-1.647 -33.887,-56.299 -33.887,-56.299 0,0 -1.031,-1.869 -2.895,-1.836 -1.913,0 -2.815,1.675 -2.815,1.675 l -39.327,63.99 h -43.172 c 0,0 3.068,-3.282 0.797,-7.53 -1.083,-2.094 -56.754,-95.042 -56.754,-95.042 h 31.677 l 45.101,74.934 c 0,0 1.027,1.764 2.013,1.764 0.967,0 1.981,-1.752 1.981,-1.752 l 44.002,-70.054 c 0,0 1.558,-2.259 3.902,-3.564 3.129,-1.498 6.543,-1.328 6.543,-1.328 h 17.23 c 0,0 1.55,2.766 3.217,5.54 C -20.197,-94.934 36.742,0 36.742,0 Z"
             style="fill:#005596;fill-opacity:1;fill-rule:nonzero;stroke:none"
             id="path31" /></g><g
           id="g33"
           transform="translate(74.4292,75.8968)"><path
             d="M 0,0 C 0.789,-0.922 1.3,-2.062 1.3,-3.438 V -19.642 H -1.784 V -7.32 c -1.373,-1.028 -3.745,-1.538 -6.362,-2.05 -2.21,-0.535 -4.22,-1.885 -4.042,-4.405 0.249,-3.096 3.853,-4.042 7.573,-3.431 l -1.651,-2.436 c -5.25,-0.616 -9.204,1.623 -9.204,6.004 0,3.265 2.859,5.665 6.515,6.475 2.915,0.64 7.014,1.055 7.014,4.018 0,1.989 -1.977,3.511 -4.486,3.511 -2.798,0 -4.666,-1.623 -4.856,-3.588 h -3.487 c 0.479,3.222 3.806,5.735 8.178,5.735 2.396,0 4.007,-0.613 4.836,-0.907 1.047,-0.362 2.992,0.584 2.545,2.312 H 4.457 C 4.272,1.683 2.339,0.366 0,0"
             style="fill:#005596;fill-opacity:1;fill-rule:nonzero;stroke:none"
             id="path35" /></g><g
           id="g37"
           transform="translate(93.1772,56.2552)"><path
             d="m 0,0 v 15.067 c 0,3 -1.236,4.941 -4.232,4.941 -2.585,0 -4.24,-1.856 -4.24,-3.587 h -3.185 c 0.25,2.85 3.008,5.729 7.381,5.729 4.783,0 7.373,-2.359 7.373,-6.607 L 3.097,0 Z m -21.453,28.496 c -0.709,0 -1.329,-0.438 -1.329,-1.236 0,-0.769 0.62,-1.269 1.329,-1.269 0.701,0 1.345,0.5 1.345,1.269 0,0.798 -0.644,1.236 -1.345,1.236 m 0,-4.147 c -1.869,0 -3.379,1.16 -3.379,2.911 0,1.767 1.51,2.927 3.379,2.927 1.9,0 3.39,-1.16 3.39,-2.927 0,-1.751 -1.49,-2.911 -3.39,-2.911"
             style="fill:#005596;fill-opacity:1;fill-rule:nonzero;stroke:none"
             id="path39" /></g><g
           id="g41"
           transform="translate(119.2041,56.2552)"><path
             d="M 0,0 C -0.632,0.443 -0.97,0.982 -0.97,1.86 V 3.024 C -1.623,1.687 -3.306,-0.29 -7.239,-0.29 c -3.902,0 -7.22,2.461 -7.22,6.935 v 15.272 h 3.092 V 7.276 c 0,-3.527 1.961,-5.363 5.17,-5.363 3.181,0 5.227,2.227 5.227,5.206 V 21.917 H 2.122 V 2.533 C 2.122,1.221 2.815,0.576 3.701,0 Z"
             style="fill:#005596;fill-opacity:1;fill-rule:nonzero;stroke:none"
             id="path43" /></g><g
           id="g45"
           transform="translate(117.0459,80.6039)"><path
             d="M 0,0 V 4.449 H 3.12 V 2.162 h 9.769 V 0 Z"
             style="fill:#005596;fill-opacity:1;fill-rule:nonzero;stroke:none"
             id="path47" /></g><g
           id="g49"
           transform="translate(144.7202,56.2552)"><path
             d="m 0,0 v 15.446 c 0,2.621 -2.03,4.562 -5.134,4.562 -2.806,0 -4.562,-1.626 -5.267,-3.044 l 2.291,-1.518 c -1.111,-0.286 -2.291,-1.333 -2.291,-2.738 V 0 h -3.104 v 12.354 c 0,1.574 1.26,2.565 2.013,2.834 l -2.396,1.575 c 0.87,2.625 4.023,5.387 8.754,5.387 4.695,0 8.27,-2.508 8.27,-6.555 L 3.136,0 Z"
             style="fill:#005596;fill-opacity:1;fill-rule:nonzero;stroke:none"
             id="path51" /></g><g
           id="g53"
           transform="translate(166.4175,56.2552)"><path
             d="m 0,0 h -6.41 l -4.808,21.111 2.952,0.806 4.574,-19.746 h 2.525 c 3.33,0 4.409,2.319 4.409,9.361 0,6.954 -1.377,8.162 -5.07,8.162 h -1.739 l 1.505,2.223 h 1.933 c 5.533,0 6.467,-3.358 6.467,-10.248 C 6.338,3.504 4.615,0 0,0"
             style="fill:#005596;fill-opacity:1;fill-rule:nonzero;stroke:none"
             id="path55" /></g><g
           id="g57"
           transform="translate(191.9961,56.2552)"><path
             d="m 0,0 v 15.067 c 0,3 -1.232,4.941 -4.171,4.941 -2.65,0 -4.305,-1.856 -4.305,-3.587 h -3.189 c 0.262,2.85 2.996,5.729 7.401,5.729 4.816,0 7.361,-2.359 7.361,-6.607 L 3.097,0 Z"
             style="fill:#005596;fill-opacity:1;fill-rule:nonzero;stroke:none"
             id="path59" /></g><g
           id="g61"
           transform="translate(218.0625,56.2552)"><path
             d="M 0,0 C -0.664,0.443 -0.982,0.982 -0.982,1.86 V 3.024 C -1.626,1.687 -3.334,-0.29 -7.219,-0.29 c -3.938,0 -7.272,2.461 -7.272,6.935 v 15.272 h 3.088 V 7.276 c 0,-3.527 2.001,-5.363 5.202,-5.363 3.173,0 5.219,2.227 5.219,5.206 V 21.917 H 2.122 V 2.533 C 2.122,1.221 2.774,0.576 3.685,0 Z"
             style="fill:#005596;fill-opacity:1;fill-rule:nonzero;stroke:none"
             id="path63" /></g><g
           id="g65"
           transform="translate(243.1064,56.2552)"><path
             d="M 0,0 C -0.648,0.443 -0.975,0.982 -0.975,1.86 V 3.024 C -1.631,1.687 -3.338,-0.29 -7.24,-0.29 c -3.881,0 -7.263,2.461 -7.263,6.935 v 15.272 h 3.152 V 7.276 c 0,-3.527 1.949,-5.363 5.186,-5.363 3.145,0 5.19,2.227 5.19,5.206 V 21.917 H 2.102 V 2.533 C 2.102,1.221 2.855,0.576 3.708,0 Z"
             style="fill:#005596;fill-opacity:1;fill-rule:nonzero;stroke:none"
             id="path67" /></g><g
           id="g69"
           transform="translate(260.8916,55.9642)"><path
             d="M 0,0 C -4.51,0 -7.755,2.376 -8.077,6.294 H -4.88 C -4.562,3.531 -2.5,2.211 0,2.211 c 3.442,0 5.335,2.456 5.335,9.019 0,6.559 -1.893,9.068 -5.335,9.068 -2.174,0 -4.026,-1.394 -4.655,-3.588 h -3.229 c 0.656,3.37 3.902,5.734 7.884,5.734 5.488,0 8.472,-3.229 8.472,-11.214 C 8.472,3.182 5.488,0 0,0"
             style="fill:#005596;fill-opacity:1;fill-rule:nonzero;stroke:none"
             id="path71" /></g><g
           id="g73"
           transform="translate(255.5986,80.6039)"><path
             d="M 0,0 V 4.449 H 3.117 V 2.162 h 9.768 l 0,-2.162 z"
             style="fill:#005596;fill-opacity:1;fill-rule:nonzero;stroke:none"
             id="path75" /></g><g
           id="g77"
           transform="translate(290.9292,56.2552)"><path
             d="m 0,0 v 16.497 c 0,1.743 -0.971,2.807 -1.76,3.04 -0.692,-1.22 -1.932,-2.13 -3.809,-2.13 -1.82,0 -3.1,0.91 -3.744,2.13 -0.806,-0.233 -1.744,-1.297 -1.744,-3.04 V 4.752 l 5.436,8.068 h -3.37 l 0.962,2.196 h 5.577 V 12.82 L -11.057,0 h -3.132 v 16.964 c 0,2.979 2.318,5.186 5.878,5.186 0,-1.079 1.015,-2.323 2.742,-2.323 1.816,0 2.811,1.244 2.811,2.323 3.539,0 5.798,-2.207 5.798,-5.186 V 0 Z"
             style="fill:#005596;fill-opacity:1;fill-rule:nonzero;stroke:none"
             id="path79" /></g><g
           id="g81"
           transform="translate(316.2725,56.2552)"><path
             d="m 0,0 v 15.446 c 0,2.621 -2.014,4.562 -5.15,4.562 -2.787,0 -4.55,-1.626 -5.263,-3.044 l 2.308,-1.518 c -1.121,-0.286 -2.308,-1.333 -2.308,-2.738 V 0 h -3.097 v 12.354 c 0,1.574 1.24,2.565 2.026,2.834 l -2.428,1.575 c 0.886,2.625 4.026,5.387 8.762,5.387 4.699,0 8.262,-2.508 8.262,-6.555 L 3.112,0 Z"
             style="fill:#005596;fill-opacity:1;fill-rule:nonzero;stroke:none"
             id="path83" /></g><g
           id="g85"
           transform="translate(335.9717,55.9642)"><path
             d="m 0,0 c -4.964,0 -8.568,2.46 -8.419,6.97 h 3.37 c -0.338,-2.806 2.158,-4.715 4.908,-4.715 2.783,0 5.034,1.651 5.034,4.011 0,2.596 -2.5,3.914 -5.565,4.57 -3.765,0.817 -7.123,2.274 -7.123,5.657 0,3.628 3.644,5.951 7.654,5.951 4.083,0 7.381,-2.275 7.675,-5.734 H 4.369 c -0.089,2.042 -2.175,3.588 -4.51,3.588 -2.311,0 -4.441,-1.522 -4.441,-3.455 0,-2.48 2.477,-3.233 6,-3.949 C 5.247,12.063 8.105,10.139 8.105,6.672 8.105,2.295 4.703,0 0,0"
             style="fill:#005596;fill-opacity:1;fill-rule:nonzero;stroke:none"
             id="path87" /></g><g
           id="g89"
           transform="translate(360.3389,55.9642)"><path
             d="m 0,0 c -4.98,0 -8.548,2.46 -8.419,6.97 h 3.402 c -0.382,-2.806 2.163,-4.715 4.884,-4.715 2.738,0 5.014,1.651 5.014,4.011 0,2.596 -2.533,3.914 -5.545,4.57 -3.793,0.817 -7.107,2.274 -7.107,5.657 0,3.628 3.6,5.951 7.638,5.951 4.096,0 7.333,-2.275 7.654,-5.734 H 4.354 c -0.118,2.042 -2.167,3.588 -4.487,3.588 -2.319,0 -4.449,-1.522 -4.449,-3.455 0,-2.48 2.452,-3.233 5.976,-3.949 3.821,-0.831 6.72,-2.755 6.72,-6.222 C 8.114,2.295 4.731,0 0,0"
             style="fill:#005596;fill-opacity:1;fill-rule:nonzero;stroke:none"
             id="path91" /></g><g
           id="g93"
           transform="translate(386.4961,55.9642)"><path
             d="M 0,0 C -3.148,0 -5.348,1.611 -6.563,3.347 V 2.15 c 0,-0.881 -0.266,-1.421 -0.966,-1.86 h -3.681 c 0.939,0.576 1.574,1.22 1.574,2.537 v 19.384 h 3.073 V 7.405 c 0,-2.975 3.415,-5.194 5.798,-5.194 2.625,0 4.634,1.695 4.634,4.534 V 22.211 H 6.945 V 6.266 C 6.945,2.46 3.797,0 0,0"
             style="fill:#005596;fill-opacity:1;fill-rule:nonzero;stroke:none"
             id="path95" /></g><g
           id="g97"
           transform="translate(413.9385,56.2552)"><path
             d="m 0,0 h -4.144 v 21.917 h 3.057 V 2.171 h 2.705 z m -7.244,0 h -4.147 v 21.917 h 3.024 V 2.171 h 2.706 z"
             style="fill:#005596;fill-opacity:1;fill-rule:nonzero;stroke:none"
             id="path99" /></g><g
           id="g101"
           transform="translate(436.4072,56.2552)"><path
             d="m 0,0 v 14.838 c 0,1.659 -0.354,2.895 -1.604,2.895 -1.098,0 -1.597,-1.043 -2.282,-2.573 L -10.43,0 h -3.095 v 19.388 c 0,1.289 -0.633,1.896 -1.567,2.529 h 3.696 c 0.681,-0.451 0.966,-1.096 0.966,-1.909 V 6.455 l 4.406,10.135 c 0.58,1.421 1.401,2.564 2.823,2.822 h -2.96 v 2.505 H 3.067 V 19.412 H -0.354 C 1.888,18.925 3.067,17.343 3.067,15.016 V 0 Z"
             style="fill:#005596;fill-opacity:1;fill-rule:nonzero;stroke:none"
             id="path103" /></g><path
           d="m 435.641,86.076 h 3.093 v -5.477 h -3.093 z"
           style="fill:#005596;fill-opacity:1;fill-rule:nonzero;stroke:none"
           id="path105" /><g
           id="g107"
           transform="translate(458.5684,56.2552)"><path
             d="m 0,0 h -6.402 l -4.812,21.111 2.991,0.806 4.567,-19.746 h 2.537 c 3.265,0 4.356,2.319 4.356,9.361 0,6.954 -1.341,8.162 -4.997,8.162 h -1.815 l 1.529,2.223 h 1.929 c 5.573,0 6.495,-3.358 6.495,-10.248 C 6.378,3.504 4.622,0 0,0"
             style="fill:#005596;fill-opacity:1;fill-rule:nonzero;stroke:none"
             id="path109" /></g><g
           id="g111"
           transform="translate(481.1348,55.9642)"><path
             d="m 0,0 c -4.493,0 -7.694,2.211 -7.694,6.061 v 16.15 h 3.076 V 6.266 c 0,-2.919 1.993,-4.055 4.618,-4.055 2.63,0 4.55,1.136 4.55,4.055 v 5.761 c 0,2.111 -1.868,3.584 -4.776,3.584 h -1.948 v 2.178 h 1.948 c 2.75,0 4.776,1.06 4.776,3.017 v 1.405 H 7.639 V 20.66 c 0,-2.431 -2.155,-3.672 -5.078,-3.95 3.088,0 5.078,-1.893 5.078,-4.268 V 6.061 C 7.639,2.211 4.494,0 0,0"
             style="fill:#005596;fill-opacity:1;fill-rule:nonzero;stroke:none"
             id="path113" /></g><g
           id="g115"
           transform="translate(508.0234,56.2552)"><path
             d="m 0,0 v 15.067 c 0,3 -1.225,4.941 -4.228,4.941 -2.617,0 -4.256,-1.856 -4.256,-3.587 h -3.12 c 0.233,2.85 2.926,5.729 7.328,5.729 4.819,0 7.368,-2.359 7.368,-6.607 L 3.092,0 Z"
             style="fill:#005596;fill-opacity:1;fill-rule:nonzero;stroke:none"
             id="path117" /></g><g
           id="g119"
           transform="translate(534.0146,56.2552)"><path
             d="m 0,0 v 16.497 c 0,1.743 -0.938,2.807 -1.792,3.04 -0.641,-1.22 -1.885,-2.13 -3.753,-2.13 -1.844,0 -3.133,0.91 -3.744,2.13 -0.858,-0.233 -1.768,-1.297 -1.768,-3.04 V 4.752 l 5.408,8.068 h -3.338 l 0.942,2.196 h 5.612 V 12.82 L -11.057,0 h -3.081 v 16.964 c 0,2.979 2.272,5.186 5.795,5.186 0,-1.079 1.047,-2.323 2.798,-2.323 1.752,0 2.803,1.244 2.803,2.323 3.547,0 5.778,-2.207 5.778,-5.186 L 3.036,0 Z"
             style="fill:#005596;fill-opacity:1;fill-rule:nonzero;stroke:none"
             id="path121" /></g><path
           d="m 521.31,82.765 h 15.65 v -2.17 h -15.65 z"
           style="fill:#005596;fill-opacity:1;fill-rule:nonzero;stroke:none"
           id="path123" /><g
           id="g125"
           transform="translate(339.8926,274.4388)"><path
             d="m 0,0 c 0,-17.971 14.395,-32.474 32.075,-32.474 v -0.27 C 14.395,-32.744 0,-47.336 0,-65.347 l -0.262,-0.019 c 0,17.982 -14.35,32.529 -32.124,32.529 v 0.25 c 17.774,0 32.124,14.616 32.124,32.57 z"
             style="fill:#ec2227;fill-opacity:1;fill-rule:nonzero;stroke:none"
             id="path127" /></g><g
           id="g129"
           transform="translate(301.2822,193.2914)"><path
             d="m 0,0 -2.069,-8.939 c 0,0 35.783,14.278 20.651,-11.992 -15.159,-26.268 -29.554,-49.083 -29.554,-49.083 0,0 -21.071,-33.218 39.988,-16.512 l 28.62,9.494 2.424,9.269 c 0,0 -46.704,-16.762 -27.755,12.591 l 29.957,50.754 c 0,0 13.497,20.061 -12.627,15.877 C 21.155,6.985 0,0 0,0"
             style="fill:#005596;fill-opacity:1;fill-rule:nonzero;stroke:none"
             id="path131" /></g></g></g></g></svg>
